<mxfile host="Electron" agent="Mozilla/5.0 (Macintosh; Intel Mac OS X 10_15_7) AppleWebKit/537.36 (KHTML, like Gecko) draw.io/24.7.17 Chrome/128.0.6613.36 Electron/32.0.1 Safari/537.36" version="24.7.17">
  <diagram name="Page-1" id="FDlsuLx13uFDMbQ4iaDr">
    <mxGraphModel dx="918" dy="634" grid="1" gridSize="10" guides="1" tooltips="1" connect="1" arrows="1" fold="1" page="1" pageScale="1" pageWidth="827" pageHeight="1169" math="0" shadow="0">
      <root>
        <mxCell id="0" />
        <mxCell id="1" parent="0" />
        <mxCell id="_Im5-4MgtpP2943i03Vn-36" value="Client" style="text;html=1;align=center;verticalAlign=middle;resizable=0;points=[];autosize=1;strokeColor=none;fillColor=none;" vertex="1" parent="1">
          <mxGeometry x="115" y="210" width="50" height="30" as="geometry" />
        </mxCell>
        <mxCell id="_Im5-4MgtpP2943i03Vn-49" style="edgeStyle=orthogonalEdgeStyle;rounded=0;orthogonalLoop=1;jettySize=auto;html=1;exitX=1;exitY=0.06;exitDx=0;exitDy=0;exitPerimeter=0;entryX=0;entryY=0.06;entryDx=0;entryDy=0;entryPerimeter=0;" edge="1" parent="1">
          <mxGeometry relative="1" as="geometry">
            <mxPoint x="160" y="259.20000000000005" as="sourcePoint" />
            <mxPoint x="400" y="259.20000000000005" as="targetPoint" />
          </mxGeometry>
        </mxCell>
        <mxCell id="_Im5-4MgtpP2943i03Vn-51" value="Send operation byte, {encrypt OR decrypt}" style="text;html=1;align=center;verticalAlign=middle;resizable=0;points=[];autosize=1;strokeColor=none;fillColor=none;fontSize=10;" vertex="1" parent="1">
          <mxGeometry x="170" y="230" width="210" height="30" as="geometry" />
        </mxCell>
        <mxCell id="_Im5-4MgtpP2943i03Vn-55" style="edgeStyle=orthogonalEdgeStyle;rounded=0;orthogonalLoop=1;jettySize=auto;html=1;exitX=0;exitY=0.06;exitDx=0;exitDy=0;exitPerimeter=0;entryX=0;entryY=0.13;entryDx=0;entryDy=0;entryPerimeter=0;" edge="1" parent="1">
          <mxGeometry relative="1" as="geometry">
            <mxPoint x="120" y="259.20000000000005" as="sourcePoint" />
            <mxPoint x="120" y="281.5999999999999" as="targetPoint" />
            <Array as="points">
              <mxPoint x="90" y="259" />
              <mxPoint x="90" y="281" />
            </Array>
          </mxGeometry>
        </mxCell>
        <mxCell id="_Im5-4MgtpP2943i03Vn-58" value="Wait for ACK" style="text;html=1;align=center;verticalAlign=middle;whiteSpace=wrap;rounded=0;fontSize=10;" vertex="1" parent="1">
          <mxGeometry x="11" y="256" width="70" height="30" as="geometry" />
        </mxCell>
        <mxCell id="_Im5-4MgtpP2943i03Vn-44" value="Server" style="text;html=1;align=center;verticalAlign=middle;resizable=0;points=[];autosize=1;strokeColor=none;fillColor=none;" vertex="1" parent="1">
          <mxGeometry x="390" y="210" width="60" height="30" as="geometry" />
        </mxCell>
        <mxCell id="_Im5-4MgtpP2943i03Vn-61" value="Max clients reached. Keep connection open" style="text;html=1;align=center;verticalAlign=middle;whiteSpace=wrap;rounded=0;fontSize=10;" vertex="1" parent="1">
          <mxGeometry x="470" y="260" width="87" height="30" as="geometry" />
        </mxCell>
        <mxCell id="_Im5-4MgtpP2943i03Vn-62" style="edgeStyle=orthogonalEdgeStyle;rounded=0;orthogonalLoop=1;jettySize=auto;html=1;exitX=1;exitY=0.06;exitDx=0;exitDy=0;exitPerimeter=0;entryX=1;entryY=0.19;entryDx=0;entryDy=0;entryPerimeter=0;" edge="1" parent="1">
          <mxGeometry relative="1" as="geometry">
            <mxPoint x="440" y="259.20000000000005" as="sourcePoint" />
            <mxPoint x="440" y="300.79999999999995" as="targetPoint" />
            <Array as="points">
              <mxPoint x="470" y="259" />
              <mxPoint x="470" y="300" />
              <mxPoint x="440" y="300" />
            </Array>
          </mxGeometry>
        </mxCell>
        <mxCell id="_Im5-4MgtpP2943i03Vn-63" style="edgeStyle=orthogonalEdgeStyle;rounded=0;orthogonalLoop=1;jettySize=auto;html=1;exitX=0;exitY=0.19;exitDx=0;exitDy=0;exitPerimeter=0;entryX=1;entryY=0.19;entryDx=0;entryDy=0;entryPerimeter=0;" edge="1" parent="1">
          <mxGeometry relative="1" as="geometry">
            <mxPoint x="400" y="300.79999999999995" as="sourcePoint" />
            <mxPoint x="160" y="300.79999999999995" as="targetPoint" />
          </mxGeometry>
        </mxCell>
        <mxCell id="_Im5-4MgtpP2943i03Vn-64" value="Send &quot;QUEUED&quot;" style="text;html=1;align=center;verticalAlign=middle;resizable=0;points=[];autosize=1;strokeColor=none;fillColor=none;fontSize=10;" vertex="1" parent="1">
          <mxGeometry x="225" y="300" width="100" height="30" as="geometry" />
        </mxCell>
        <mxCell id="_Im5-4MgtpP2943i03Vn-66" style="edgeStyle=orthogonalEdgeStyle;rounded=0;orthogonalLoop=1;jettySize=auto;html=1;exitX=0;exitY=0.19;exitDx=0;exitDy=0;exitPerimeter=0;entryX=0;entryY=0.31;entryDx=0;entryDy=0;entryPerimeter=0;" edge="1" parent="1">
          <mxGeometry relative="1" as="geometry">
            <mxPoint x="120" y="300.79999999999995" as="sourcePoint" />
            <mxPoint x="120" y="339.20000000000005" as="targetPoint" />
            <Array as="points">
              <mxPoint x="90" y="301" />
              <mxPoint x="90" y="339" />
            </Array>
          </mxGeometry>
        </mxCell>
        <mxCell id="_Im5-4MgtpP2943i03Vn-67" value="Wait in queue for ACK" style="text;html=1;align=center;verticalAlign=middle;whiteSpace=wrap;rounded=0;fontSize=10;" vertex="1" parent="1">
          <mxGeometry x="11" y="306" width="70" height="30" as="geometry" />
        </mxCell>
        <mxCell id="_Im5-4MgtpP2943i03Vn-69" style="edgeStyle=orthogonalEdgeStyle;rounded=0;orthogonalLoop=1;jettySize=auto;html=1;exitX=1;exitY=0.25;exitDx=0;exitDy=0;exitPerimeter=0;entryX=1;entryY=0.38;entryDx=0;entryDy=0;entryPerimeter=0;" edge="1" parent="1">
          <mxGeometry relative="1" as="geometry">
            <mxPoint x="440" y="320" as="sourcePoint" />
            <mxPoint x="440" y="361.5999999999999" as="targetPoint" />
            <Array as="points">
              <mxPoint x="470" y="320" />
              <mxPoint x="470" y="362" />
            </Array>
          </mxGeometry>
        </mxCell>
        <mxCell id="_Im5-4MgtpP2943i03Vn-70" value="Clients finished," style="text;html=1;align=center;verticalAlign=middle;whiteSpace=wrap;rounded=0;fontSize=10;" vertex="1" parent="1">
          <mxGeometry x="470" y="320" width="87" height="40" as="geometry" />
        </mxCell>
        <mxCell id="_Im5-4MgtpP2943i03Vn-71" style="edgeStyle=orthogonalEdgeStyle;rounded=0;orthogonalLoop=1;jettySize=auto;html=1;exitX=0;exitY=0.38;exitDx=0;exitDy=0;exitPerimeter=0;entryX=1;entryY=0.38;entryDx=0;entryDy=0;entryPerimeter=0;" edge="1" parent="1">
          <mxGeometry relative="1" as="geometry">
            <mxPoint x="400" y="361.5999999999999" as="sourcePoint" />
            <mxPoint x="160" y="361.5999999999999" as="targetPoint" />
          </mxGeometry>
        </mxCell>
        <mxCell id="_Im5-4MgtpP2943i03Vn-72" value="Send &quot;ACK&quot;" style="text;html=1;align=center;verticalAlign=middle;resizable=0;points=[];autosize=1;strokeColor=none;fillColor=none;fontSize=10;" vertex="1" parent="1">
          <mxGeometry x="235" y="360" width="80" height="30" as="geometry" />
        </mxCell>
        <mxCell id="_Im5-4MgtpP2943i03Vn-75" style="edgeStyle=orthogonalEdgeStyle;rounded=0;orthogonalLoop=1;jettySize=auto;html=1;exitX=0;exitY=0.38;exitDx=0;exitDy=0;exitPerimeter=0;entryX=0;entryY=0.5;entryDx=0;entryDy=0;entryPerimeter=0;" edge="1" parent="1">
          <mxGeometry relative="1" as="geometry">
            <mxPoint x="120" y="491.5999999999999" as="sourcePoint" />
            <mxPoint x="120" y="530" as="targetPoint" />
            <Array as="points">
              <mxPoint x="90" y="491.6" />
              <mxPoint x="90" y="529.6" />
            </Array>
          </mxGeometry>
        </mxCell>
        <mxCell id="_Im5-4MgtpP2943i03Vn-76" value="Begin data Transfer" style="text;html=1;align=center;verticalAlign=middle;whiteSpace=wrap;rounded=0;fontSize=10;" vertex="1" parent="1">
          <mxGeometry x="11" y="490" width="70" height="30" as="geometry" />
        </mxCell>
        <mxCell id="_Im5-4MgtpP2943i03Vn-77" style="edgeStyle=orthogonalEdgeStyle;rounded=0;orthogonalLoop=1;jettySize=auto;html=1;exitX=1;exitY=0.5;exitDx=0;exitDy=0;exitPerimeter=0;entryX=0;entryY=0.5;entryDx=0;entryDy=0;" edge="1" parent="1" target="_Im5-4MgtpP2943i03Vn-91">
          <mxGeometry relative="1" as="geometry">
            <mxPoint x="157.5" y="528.4" as="sourcePoint" />
            <mxPoint x="397.5" y="528.4" as="targetPoint" />
            <Array as="points">
              <mxPoint x="279" y="528" />
              <mxPoint x="400" y="529" />
            </Array>
          </mxGeometry>
        </mxCell>
        <mxCell id="_Im5-4MgtpP2943i03Vn-78" value="Send Chunk" style="text;html=1;align=center;verticalAlign=middle;resizable=0;points=[];autosize=1;strokeColor=none;fillColor=none;fontSize=10;" vertex="1" parent="1">
          <mxGeometry x="232.5" y="508.4" width="80" height="30" as="geometry" />
        </mxCell>
        <mxCell id="_Im5-4MgtpP2943i03Vn-79" style="edgeStyle=orthogonalEdgeStyle;rounded=0;orthogonalLoop=1;jettySize=auto;html=1;exitX=1;exitY=0.5;exitDx=0;exitDy=0;exitPerimeter=0;entryX=1;entryY=0.63;entryDx=0;entryDy=0;entryPerimeter=0;" edge="1" parent="1">
          <mxGeometry relative="1" as="geometry">
            <mxPoint x="440" y="527.62" as="sourcePoint" />
            <mxPoint x="440" y="569.2199999999999" as="targetPoint" />
            <Array as="points">
              <mxPoint x="470" y="527.62" />
              <mxPoint x="470" y="569.62" />
            </Array>
          </mxGeometry>
        </mxCell>
        <mxCell id="_Im5-4MgtpP2943i03Vn-80" value="Encrypt OR decrypt chunk" style="text;html=1;align=center;verticalAlign=middle;whiteSpace=wrap;rounded=0;fontSize=10;" vertex="1" parent="1">
          <mxGeometry x="470" y="530" width="87" height="40" as="geometry" />
        </mxCell>
        <mxCell id="_Im5-4MgtpP2943i03Vn-81" style="edgeStyle=orthogonalEdgeStyle;rounded=0;orthogonalLoop=1;jettySize=auto;html=1;exitX=0.002;exitY=0.569;exitDx=0;exitDy=0;exitPerimeter=0;" edge="1" parent="1" source="_Im5-4MgtpP2943i03Vn-91">
          <mxGeometry relative="1" as="geometry">
            <mxPoint x="392.5" y="569.9999999999999" as="sourcePoint" />
            <mxPoint x="162" y="569" as="targetPoint" />
            <Array as="points">
              <mxPoint x="162" y="569" />
            </Array>
          </mxGeometry>
        </mxCell>
        <mxCell id="_Im5-4MgtpP2943i03Vn-82" value="Send back Chunk" style="text;html=1;align=center;verticalAlign=middle;resizable=0;points=[];autosize=1;strokeColor=none;fillColor=none;fontSize=10;" vertex="1" parent="1">
          <mxGeometry x="225" y="560" width="100" height="30" as="geometry" />
        </mxCell>
        <mxCell id="_Im5-4MgtpP2943i03Vn-83" value="Stage 1: Acknowledgement and Queuing" style="text;html=1;align=center;verticalAlign=middle;resizable=0;points=[];autosize=1;strokeColor=none;fillColor=none;" vertex="1" parent="1">
          <mxGeometry x="160" y="180" width="240" height="30" as="geometry" />
        </mxCell>
        <mxCell id="_Im5-4MgtpP2943i03Vn-110" style="edgeStyle=orthogonalEdgeStyle;rounded=0;orthogonalLoop=1;jettySize=auto;html=1;exitX=0.5;exitY=1;exitDx=0;exitDy=0;dashed=1;" edge="1" parent="1" source="_Im5-4MgtpP2943i03Vn-86" target="_Im5-4MgtpP2943i03Vn-90">
          <mxGeometry relative="1" as="geometry" />
        </mxCell>
        <mxCell id="_Im5-4MgtpP2943i03Vn-86" value="" style="rounded=0;whiteSpace=wrap;html=1;" vertex="1" parent="1">
          <mxGeometry x="120" y="236" width="40" height="174" as="geometry" />
        </mxCell>
        <mxCell id="_Im5-4MgtpP2943i03Vn-111" style="edgeStyle=orthogonalEdgeStyle;rounded=0;orthogonalLoop=1;jettySize=auto;html=1;exitX=0.5;exitY=1;exitDx=0;exitDy=0;entryX=0.5;entryY=0;entryDx=0;entryDy=0;dashed=1;" edge="1" parent="1" source="_Im5-4MgtpP2943i03Vn-89" target="_Im5-4MgtpP2943i03Vn-91">
          <mxGeometry relative="1" as="geometry" />
        </mxCell>
        <mxCell id="_Im5-4MgtpP2943i03Vn-89" value="" style="rounded=0;whiteSpace=wrap;html=1;" vertex="1" parent="1">
          <mxGeometry x="400" y="240" width="40" height="174" as="geometry" />
        </mxCell>
        <mxCell id="_Im5-4MgtpP2943i03Vn-112" style="edgeStyle=orthogonalEdgeStyle;rounded=0;orthogonalLoop=1;jettySize=auto;html=1;exitX=0.5;exitY=1;exitDx=0;exitDy=0;entryX=0.5;entryY=0;entryDx=0;entryDy=0;dashed=1;" edge="1" parent="1" source="_Im5-4MgtpP2943i03Vn-90" target="_Im5-4MgtpP2943i03Vn-96">
          <mxGeometry relative="1" as="geometry" />
        </mxCell>
        <mxCell id="_Im5-4MgtpP2943i03Vn-90" value="" style="rounded=0;whiteSpace=wrap;html=1;" vertex="1" parent="1">
          <mxGeometry x="120" y="470" width="40" height="120" as="geometry" />
        </mxCell>
        <mxCell id="_Im5-4MgtpP2943i03Vn-113" style="edgeStyle=orthogonalEdgeStyle;rounded=0;orthogonalLoop=1;jettySize=auto;html=1;exitX=0.5;exitY=1;exitDx=0;exitDy=0;entryX=0.5;entryY=0;entryDx=0;entryDy=0;dashed=1;" edge="1" parent="1" source="_Im5-4MgtpP2943i03Vn-91" target="_Im5-4MgtpP2943i03Vn-103">
          <mxGeometry relative="1" as="geometry" />
        </mxCell>
        <mxCell id="_Im5-4MgtpP2943i03Vn-91" value="" style="rounded=0;whiteSpace=wrap;html=1;" vertex="1" parent="1">
          <mxGeometry x="400" y="470" width="40" height="120" as="geometry" />
        </mxCell>
        <mxCell id="_Im5-4MgtpP2943i03Vn-92" value="Stage 2: File Transfer and Operation" style="text;html=1;align=center;verticalAlign=middle;resizable=0;points=[];autosize=1;strokeColor=none;fillColor=none;" vertex="1" parent="1">
          <mxGeometry x="170" y="430" width="220" height="30" as="geometry" />
        </mxCell>
        <mxCell id="_Im5-4MgtpP2943i03Vn-95" value="&lt;b&gt;&lt;font style=&quot;font-size: 17px;&quot;&gt;...&lt;/font&gt;&lt;/b&gt;" style="text;html=1;align=center;verticalAlign=middle;resizable=0;points=[];autosize=1;strokeColor=none;fillColor=none;" vertex="1" parent="1">
          <mxGeometry x="255" y="590" width="40" height="30" as="geometry" />
        </mxCell>
        <mxCell id="_Im5-4MgtpP2943i03Vn-96" value="" style="rounded=0;whiteSpace=wrap;html=1;" vertex="1" parent="1">
          <mxGeometry x="120" y="680" width="40" height="120" as="geometry" />
        </mxCell>
        <mxCell id="_Im5-4MgtpP2943i03Vn-97" value="Stage 3: File Transfer Complete" style="text;html=1;align=center;verticalAlign=middle;resizable=0;points=[];autosize=1;strokeColor=none;fillColor=none;" vertex="1" parent="1">
          <mxGeometry x="185" y="630" width="190" height="30" as="geometry" />
        </mxCell>
        <mxCell id="_Im5-4MgtpP2943i03Vn-99" style="edgeStyle=orthogonalEdgeStyle;rounded=0;orthogonalLoop=1;jettySize=auto;html=1;exitX=0;exitY=0.38;exitDx=0;exitDy=0;exitPerimeter=0;entryX=0;entryY=0.5;entryDx=0;entryDy=0;entryPerimeter=0;" edge="1" parent="1">
          <mxGeometry relative="1" as="geometry">
            <mxPoint x="120" y="738.9999999999999" as="sourcePoint" />
            <mxPoint x="120" y="777.4" as="targetPoint" />
            <Array as="points">
              <mxPoint x="90" y="739" />
              <mxPoint x="90" y="777" />
            </Array>
          </mxGeometry>
        </mxCell>
        <mxCell id="_Im5-4MgtpP2943i03Vn-101" value="File done. Send metrics to Server" style="text;html=1;align=center;verticalAlign=middle;whiteSpace=wrap;rounded=0;fontSize=10;" vertex="1" parent="1">
          <mxGeometry x="16" y="743" width="70" height="30" as="geometry" />
        </mxCell>
        <mxCell id="_Im5-4MgtpP2943i03Vn-102" style="edgeStyle=orthogonalEdgeStyle;rounded=0;orthogonalLoop=1;jettySize=auto;html=1;exitX=0;exitY=0.38;exitDx=0;exitDy=0;exitPerimeter=0;" edge="1" parent="1">
          <mxGeometry relative="1" as="geometry">
            <mxPoint x="120" y="569.9999999999999" as="sourcePoint" />
            <mxPoint x="90" y="530" as="targetPoint" />
            <Array as="points">
              <mxPoint x="50" y="570" />
              <mxPoint x="50" y="530" />
            </Array>
          </mxGeometry>
        </mxCell>
        <mxCell id="_Im5-4MgtpP2943i03Vn-103" value="" style="rounded=0;whiteSpace=wrap;html=1;" vertex="1" parent="1">
          <mxGeometry x="400" y="680" width="40" height="120" as="geometry" />
        </mxCell>
        <mxCell id="_Im5-4MgtpP2943i03Vn-106" style="edgeStyle=orthogonalEdgeStyle;rounded=0;orthogonalLoop=1;jettySize=auto;html=1;exitX=1;exitY=0.5;exitDx=0;exitDy=0;exitPerimeter=0;entryX=1;entryY=0.63;entryDx=0;entryDy=0;entryPerimeter=0;" edge="1" parent="1">
          <mxGeometry relative="1" as="geometry">
            <mxPoint x="440" y="698.2" as="sourcePoint" />
            <mxPoint x="440" y="739.8" as="targetPoint" />
            <Array as="points">
              <mxPoint x="470" y="698.2" />
              <mxPoint x="470" y="740.2" />
            </Array>
          </mxGeometry>
        </mxCell>
        <mxCell id="_Im5-4MgtpP2943i03Vn-109" value="Close connection. The server will know the file is done if last_chunk_size &amp;lt; chunk_size&amp;nbsp;" style="text;html=1;align=center;verticalAlign=middle;whiteSpace=wrap;rounded=0;fontSize=10;" vertex="1" parent="1">
          <mxGeometry x="470" y="703" width="87" height="40" as="geometry" />
        </mxCell>
        <mxCell id="_Im5-4MgtpP2943i03Vn-114" style="edgeStyle=orthogonalEdgeStyle;rounded=0;orthogonalLoop=1;jettySize=auto;html=1;exitX=0.002;exitY=0.569;exitDx=0;exitDy=0;exitPerimeter=0;" edge="1" parent="1">
          <mxGeometry relative="1" as="geometry">
            <mxPoint x="400" y="708" as="sourcePoint" />
            <mxPoint x="162" y="739" as="targetPoint" />
            <Array as="points">
              <mxPoint x="162" y="739" />
            </Array>
          </mxGeometry>
        </mxCell>
        <mxCell id="_Im5-4MgtpP2943i03Vn-115" value="&lt;font style=&quot;font-size: 10px;&quot;&gt;Send Connection Closed&lt;/font&gt;" style="text;html=1;align=center;verticalAlign=middle;resizable=0;points=[];autosize=1;strokeColor=none;fillColor=none;" vertex="1" parent="1">
          <mxGeometry x="215" y="713" width="130" height="30" as="geometry" />
        </mxCell>
      </root>
    </mxGraphModel>
  </diagram>
</mxfile>
